<svg version="1.1" id="Layer_1" xmlns="http://www.w3.org/2000/svg" xmlns:xlink="http://www.w3.org/1999/xlink" x="0px" y="0px"
	 width="100%" viewBox="0 0 2107 2108" enable-background="new 0 0 2107 2108" xml:space="preserve">
<path fill="#1753CD" opacity="1.000000" stroke="none" 
	d="
M1.999998,1884.000000 
	C2.000000,1329.941284 2.000000,775.882568 2.801691,220.862122 
	C4.310428,218.204819 5.418007,216.565399 5.664925,214.805267 
	C9.910741,184.539185 19.236134,155.784470 34.659653,129.566193 
	C77.260574,57.149323 140.430099,15.028521 224.783875,3.996404 
	C229.742462,3.382962 233.871231,2.691481 238.000000,2.000000 
	C783.392090,2.000000 1328.784180,2.000000 1875.587402,2.617220 
	C1880.711548,3.405724 1884.424438,3.577007 1888.954956,3.951281 
	C1896.324707,5.094045 1902.944092,5.704587 1909.418701,7.025184 
	C1966.005249,18.567062 2013.666626,45.649872 2051.143311,89.772766 
	C2083.323486,127.660225 2103.568848,170.932220 2108.175781,220.923187 
	C2108.274658,221.995712 2109.369629,222.976471 2110.000000,224.000031 
	C2110.000000,779.392090 2110.000000,1334.784180 2109.247803,1891.432129 
	C2106.077148,1905.392212 2104.987549,1918.527222 2101.030273,1930.732300 
	C2069.804199,2027.038452 2004.803589,2086.101318 1905.253052,2106.487305 
	C1899.503296,2107.664551 1893.751099,2108.829346 1888.000000,2110.000000 
	C1331.274658,2110.000000 774.549194,2110.000000 216.681274,2109.254395 
	C212.998978,2107.794189 210.498901,2106.854248 207.913574,2106.398438 
	C155.845856,2097.222412 111.485077,2073.532715 74.413712,2035.913696 
	C35.506439,1996.431885 12.691942,1949.144287 5.185717,1893.585205 
	C4.089368,1889.897583 3.044682,1886.948853 1.999998,1884.000000 
M676.483398,505.469879 
	C794.437256,411.419830 912.391113,317.369812 1030.291870,223.362137 
	C1015.734863,187.516861 1001.624817,152.772217 987.181763,117.207680 
	C984.136108,119.835526 981.825256,121.664177 979.699341,123.687210 
	C839.444641,257.159546 699.232788,390.677002 558.855530,524.020264 
	C553.551697,529.058350 551.509277,534.032471 551.512329,541.309021 
	C551.683472,945.270630 551.686584,1349.232300 551.496338,1753.193848 
	C551.492737,1760.875610 553.760803,1766.452393 558.992737,1771.733154 
	C599.083252,1812.198486 646.653748,1825.427490 701.720398,1810.975464 
	C711.525391,1808.402222 721.353210,1806.585327 731.325989,1807.737671 
	C749.153809,1809.797607 767.098633,1811.641846 784.630005,1815.315918 
	C830.649231,1824.960083 875.406555,1839.285278 919.583862,1855.155884 
	C1000.102417,1884.081665 1080.283569,1913.945435 1160.668823,1943.243774 
	C1206.018066,1959.772583 1251.218750,1976.861206 1298.104004,1988.651489 
	C1312.536377,1992.280762 1327.480591,1994.281494 1342.316895,1995.762939 
	C1353.524414,1996.882080 1361.726807,1990.780884 1365.034180,1980.025635 
	C1367.553955,1971.830688 1369.725586,1963.200073 1369.987305,1954.699829 
	C1370.838257,1927.061279 1370.956055,1899.393555 1370.971680,1871.736938 
	C1371.050537,1731.750244 1371.055542,1591.763428 1370.996826,1451.776733 
	C1370.903442,1229.135376 1370.739014,1006.493958 1370.604980,783.852600 
	C1370.602783,780.234436 1370.604614,776.616272 1370.604614,772.527100 
	C1128.613892,692.092285 887.162476,612.172852 644.140442,531.356628 
	C655.681824,522.092224 665.512329,514.201233 676.483398,505.469879 
M1433.998047,1062.999512 
	C1433.439453,1144.314209 1432.906250,1225.629272 1432.314819,1306.943726 
	C1431.771606,1381.592529 1431.109375,1456.240479 1430.600098,1530.889526 
	C1429.743164,1656.532349 1428.965454,1782.175659 1428.157593,1907.818848 
	C1428.136963,1911.028198 1428.154907,1914.237671 1428.154907,1918.877686 
	C1432.038208,1916.896240 1434.661987,1915.753784 1437.091064,1914.288574 
	C1473.604736,1892.260254 1510.005737,1870.042603 1546.677246,1848.281006 
	C1552.463989,1844.846924 1553.916626,1840.839478 1553.947266,1834.617798 
	C1554.403687,1741.636230 1555.036255,1648.655273 1555.682251,1555.674683 
	C1556.221802,1478.025146 1556.873291,1400.376465 1557.402710,1322.726807 
	C1558.193237,1206.749268 1558.953613,1090.771362 1559.658813,974.793091 
	C1559.974854,922.798889 1560.033691,870.803040 1560.373413,818.809021 
	C1560.902466,737.826904 1561.578125,656.845642 1562.153564,575.863770 
	C1562.174072,572.973938 1561.791016,570.081238 1561.554443,566.574951 
	C1277.545532,552.863953 994.142456,539.182251 710.739319,525.500549 
	C710.624695,526.199097 710.510071,526.897705 710.395386,527.596252 
	C952.241638,592.458618 1194.087891,657.320923 1436.507202,722.336914 
	C1435.673218,835.782776 1434.845337,948.390991 1433.998047,1062.999512 
M1399.010254,504.206909 
	C1415.933472,504.206909 1432.856689,504.206909 1450.391846,504.206909 
	C1450.391846,446.691040 1450.391846,390.576508 1450.391846,332.984131 
	C1201.550171,393.446960 953.498657,453.717804 705.447144,513.988647 
	C709.689697,515.780579 713.617981,515.840576 717.544067,515.771667 
	C782.491699,514.631958 847.437866,513.406189 912.386719,512.343445 
	C977.339661,511.280670 1042.296631,510.468018 1107.249268,509.382996 
	C1203.840332,507.769470 1300.429077,506.012878 1399.010254,504.206909 
M884.913513,385.985321 
	C823.430420,424.228210 761.947327,462.471100 700.464294,500.713989 
	C700.794067,501.495361 701.123840,502.276703 701.453613,503.058044 
	C858.306885,458.045074 1015.075073,412.736237 1172.315430,367.354645 
	C1160.579346,320.869202 1149.127441,275.510132 1137.383057,228.991959 
	C1052.923218,281.524567 969.545349,333.384277 884.913513,385.985321 
z"/>
<path fill="#FEFEFF" opacity="1.000000" stroke="none" 
	d="
M223.954056,3.918365 
	C140.430099,15.028521 77.260574,57.149323 34.659653,129.566193 
	C19.236134,155.784470 9.910741,184.539185 5.664925,214.805267 
	C5.418007,216.565399 4.310428,218.204819 2.801691,219.950211 
	C2.000000,147.478104 2.000000,74.956223 2.000000,2.000000 
	C75.374550,2.000000 148.749954,2.000000 223.091202,2.480549 
	C224.057037,2.961099 223.954056,3.918365 223.954056,3.918365 
z"/>
<path fill="#FDFEFF" opacity="1.000000" stroke="none" 
	d="
M5.237381,1894.323975 
	C12.691942,1949.144287 35.506439,1996.431885 74.413712,2035.913696 
	C111.485077,2073.532715 155.845856,2097.222412 207.913574,2106.398438 
	C210.498901,2106.854248 212.998978,2107.794189 215.769379,2109.254395 
	C144.812088,2110.000000 73.624191,2110.000000 2.000000,2110.000000 
	C2.000000,2038.625488 2.000000,1967.250000 2.543709,1894.972412 
	C3.804073,1894.154663 4.520729,1894.239258 5.237381,1894.323975 
z"/>
<path fill="#FEFEFF" opacity="1.000000" stroke="none" 
	d="
M2110.000000,223.062714 
	C2109.369629,222.976471 2108.274658,221.995712 2108.175781,220.923187 
	C2103.568848,170.932220 2083.323486,127.660225 2051.143311,89.772766 
	C2013.666626,45.649872 1966.005249,18.567062 1909.418701,7.025184 
	C1902.944092,5.704587 1896.324707,5.094045 1888.933716,3.513177 
	C1888.094971,2.872082 1888.000000,2.000000 1888.000000,2.000000 
	C1961.853882,2.000000 2035.707886,2.000000 2110.000000,2.000000 
	C2110.000000,75.374542 2110.000000,148.749954 2110.000000,223.062714 
z"/>
<path fill="#FDFEFF" opacity="1.000000" stroke="none" 
	d="
M1888.937256,2110.000000 
	C1893.751099,2108.829346 1899.503296,2107.664551 1905.253052,2106.487305 
	C2004.803589,2086.101318 2069.804199,2027.038452 2101.030273,1930.732300 
	C2104.987549,1918.527222 2106.077148,1905.392212 2109.247803,1892.343994 
	C2110.000000,1964.521851 2110.000000,2037.043823 2110.000000,2110.000000 
	C2036.625488,2110.000000 1963.250000,2110.000000 1888.937256,2110.000000 
z"/>
<path fill="#AFC3EE" opacity="1.000000" stroke="none" 
	d="
M5.185719,1893.585205 
	C4.520729,1894.239258 3.804073,1894.154663 2.543709,1894.035034 
	C2.000000,1891.222168 2.000000,1888.444458 1.999998,1884.833252 
	C3.044682,1886.948853 4.089368,1889.897583 5.185719,1893.585205 
z"/>
<path fill="#AEC3ED" opacity="1.000000" stroke="none" 
	d="
M224.783875,3.996404 
	C223.954056,3.918365 224.057037,2.961099 224.028519,2.480549 
	C228.083328,2.000000 232.166672,2.000000 237.125000,2.000000 
	C233.871231,2.691481 229.742462,3.382962 224.783875,3.996404 
z"/>
<path fill="#ABC0ED" opacity="1.000000" stroke="none" 
	d="
M1887.143066,2.000000 
	C1888.000000,2.000000 1888.094971,2.872082 1888.116211,3.310186 
	C1884.424438,3.577007 1880.711548,3.405724 1876.499268,2.617220 
	C1879.428711,2.000000 1882.857422,2.000000 1887.143066,2.000000 
z"/>
<path fill="#FEFFFF" opacity="1.000000" stroke="none" 
	d="
M675.913086,505.890076 
	C665.512329,514.201233 655.681824,522.092224 644.140442,531.356628 
	C887.162476,612.172852 1128.613892,692.092285 1370.604614,772.527100 
	C1370.604614,776.616272 1370.602783,780.234436 1370.604980,783.852600 
	C1370.739014,1006.493958 1370.903442,1229.135376 1370.996826,1451.776733 
	C1371.055542,1591.763428 1371.050537,1731.750244 1370.971680,1871.736938 
	C1370.956055,1899.393555 1370.838257,1927.061279 1369.987305,1954.699829 
	C1369.725586,1963.200073 1367.553955,1971.830688 1365.034180,1980.025635 
	C1361.726807,1990.780884 1353.524414,1996.882080 1342.316895,1995.762939 
	C1327.480591,1994.281494 1312.536377,1992.280762 1298.104004,1988.651489 
	C1251.218750,1976.861206 1206.018066,1959.772583 1160.668823,1943.243774 
	C1080.283569,1913.945435 1000.102417,1884.081665 919.583862,1855.155884 
	C875.406555,1839.285278 830.649231,1824.960083 784.630005,1815.315918 
	C767.098633,1811.641846 749.153809,1809.797607 731.325989,1807.737671 
	C721.353210,1806.585327 711.525391,1808.402222 701.720398,1810.975464 
	C646.653748,1825.427490 599.083252,1812.198486 558.992737,1771.733154 
	C553.760803,1766.452393 551.492737,1760.875610 551.496338,1753.193848 
	C551.686584,1349.232300 551.683472,945.270630 551.512329,541.309021 
	C551.509277,534.032471 553.551697,529.058350 558.855530,524.020264 
	C699.232788,390.677002 839.444641,257.159546 979.699341,123.687210 
	C981.825256,121.664177 984.136108,119.835526 987.181763,117.207680 
	C1001.624817,152.772217 1015.734863,187.516861 1030.291870,223.362137 
	C912.391113,317.369812 794.437256,411.419830 675.913086,505.890076 
M1001.620789,1323.449585 
	C1005.642639,1325.770508 1009.664551,1328.091431 1014.092957,1330.646973 
	C1014.092957,1400.078979 1014.092957,1469.345703 1014.092957,1538.835571 
	C1045.310669,1555.993530 1076.129883,1572.932617 1108.000488,1590.449463 
	C1108.000488,1408.222290 1108.000488,1227.421387 1108.004883,1046.619873 
	C1094.315796,1037.117554 1021.057800,999.622375 1013.768372,998.652710 
	C1013.768372,1066.266846 1013.768372,1133.791016 1013.768372,1203.202881 
	C977.694153,1183.191528 942.956970,1163.921875 908.133911,1144.604492 
	C908.133911,1074.083496 908.133911,1004.481384 908.133911,934.794800 
	C876.848145,918.371948 846.015137,902.186768 814.267090,885.521240 
	C814.267090,1067.219604 814.267090,1247.379395 814.267090,1427.899170 
	C845.226685,1444.909668 876.005249,1461.820679 908.569336,1479.712769 
	C908.569336,1409.191528 908.569336,1340.842407 908.569336,1270.743042 
	C940.241211,1288.657593 970.302368,1305.661011 1001.620789,1323.449585 
z"/>
<path fill="#FEFEFF" opacity="1.000000" stroke="none" 
	d="
M1434.007812,1061.999268 
	C1434.845337,948.390991 1435.673218,835.782776 1436.507202,722.336914 
	C1194.087891,657.320923 952.241638,592.458618 710.395386,527.596252 
	C710.510071,526.897705 710.624695,526.199097 710.739319,525.500549 
	C994.142456,539.182251 1277.545532,552.863953 1561.554443,566.574951 
	C1561.791016,570.081238 1562.174072,572.973938 1562.153564,575.863770 
	C1561.578125,656.845642 1560.902466,737.826904 1560.373413,818.809021 
	C1560.033691,870.803040 1559.974854,922.798889 1559.658813,974.793091 
	C1558.953613,1090.771362 1558.193237,1206.749268 1557.402710,1322.726807 
	C1556.873291,1400.376465 1556.221802,1478.025146 1555.682251,1555.674683 
	C1555.036255,1648.655273 1554.403687,1741.636230 1553.947266,1834.617798 
	C1553.916626,1840.839478 1552.463989,1844.846924 1546.677246,1848.281006 
	C1510.005737,1870.042603 1473.604736,1892.260254 1437.091064,1914.288574 
	C1434.661987,1915.753784 1432.038208,1916.896240 1428.154907,1918.877686 
	C1428.154907,1914.237671 1428.136963,1911.028198 1428.157593,1907.818848 
	C1428.965454,1782.175659 1429.743164,1656.532349 1430.600098,1530.889526 
	C1431.109375,1456.240479 1431.771606,1381.592529 1432.314819,1306.943726 
	C1432.906250,1225.629272 1433.439453,1144.314209 1434.007812,1061.999268 
z"/>
<path fill="#FDFDFE" opacity="1.000000" stroke="none" 
	d="
M1398.014526,504.262085 
	C1300.429077,506.012878 1203.840332,507.769470 1107.249268,509.382996 
	C1042.296631,510.468018 977.339661,511.280670 912.386719,512.343445 
	C847.437866,513.406189 782.491699,514.631958 717.544067,515.771667 
	C713.617981,515.840576 709.689697,515.780579 705.447144,513.988647 
	C953.498657,453.717804 1201.550171,393.446960 1450.391846,332.984131 
	C1450.391846,390.576508 1450.391846,446.691040 1450.391846,504.206909 
	C1432.856689,504.206909 1415.933472,504.206909 1398.014526,504.262085 
z"/>
<path fill="#FDFDFE" opacity="1.000000" stroke="none" 
	d="
M885.540466,385.614624 
	C969.545349,333.384277 1052.923218,281.524567 1137.383057,228.991959 
	C1149.127441,275.510132 1160.579346,320.869202 1172.315430,367.354645 
	C1015.075073,412.736237 858.306885,458.045074 701.453613,503.058044 
	C701.123840,502.276703 700.794067,501.495361 700.464294,500.713989 
	C761.947327,462.471100 823.430420,424.228210 885.540466,385.614624 
z"/>
<path fill="#1854CD" opacity="1.000000" stroke="none" 
	d="
M1000.992188,1323.057007 
	C970.302368,1305.661011 940.241211,1288.657593 908.569336,1270.743042 
	C908.569336,1340.842407 908.569336,1409.191528 908.569336,1479.712769 
	C876.005249,1461.820679 845.226685,1444.909668 814.267090,1427.899170 
	C814.267090,1247.379395 814.267090,1067.219604 814.267090,885.521240 
	C846.015137,902.186768 876.848145,918.371948 908.133911,934.794800 
	C908.133911,1004.481384 908.133911,1074.083496 908.133911,1144.604492 
	C942.956970,1163.921875 977.694153,1183.191528 1013.768372,1203.202881 
	C1013.768372,1133.791016 1013.768372,1066.266846 1013.768372,998.652710 
	C1021.057800,999.622375 1094.315796,1037.117554 1108.002686,1046.620117 
	C1108.000488,1227.421387 1108.000488,1408.222290 1108.000488,1590.449463 
	C1076.129883,1572.932617 1045.310669,1555.993530 1014.092957,1538.835571 
	C1014.092957,1469.345703 1014.092957,1400.078979 1014.092957,1330.646973 
	C1009.664551,1328.091431 1005.642639,1325.770508 1000.992188,1323.057007 
z"/>
</svg>